HIERARCHY
ROOT hip
{
	OFFSET	0.00  0.00  0.00 
	CHANNELS 6 Xposition Yposition Zposition Xrotation Zrotation Yrotation
	JOINT abdomen
	{
		OFFSET	0.000000 1.799998 0.000000
		CHANNELS 3 Xrotation Zrotation Yrotation
		JOINT chest
		{
			OFFSET	0.000000 4.464001 -0.360000
			CHANNELS 3 Xrotation Zrotation Yrotation
			JOINT neck
			{
				OFFSET	0.000000 5.400002 -0.144000
				CHANNELS 3 Xrotation Zrotation Yrotation
				JOINT head
				{
					OFFSET	0.000000 1.655998 0.000000
					CHANNELS 3 Xrotation Zrotation Yrotation
				}
			}
			JOINT lCollar
			{
				OFFSET	1.800000 3.528000 -0.432000
				CHANNELS 3 Yrotation Zrotation Xrotation
				JOINT lShldr
				{
					OFFSET	1.728000 0.000000 0.000000
					CHANNELS 3 Zrotation Yrotation Xrotation
					JOINT lForeArm
					{
						OFFSET	5.328000 0.000000 0.000000
						CHANNELS 3 Yrotation Zrotation Xrotation
						JOINT lHand
						{
							OFFSET	4.464000 0.000000 0.000000
							CHANNELS 3 Zrotation Yrotation Xrotation
						}
					}
				}
			}
			JOINT rCollar
			{
				OFFSET	-1.872000 3.528000 -0.432000
				CHANNELS 3 Yrotation Zrotation Xrotation
				JOINT rShldr
				{
					OFFSET	-1.656000 0.000000 0.000000
					CHANNELS 3 Zrotation Yrotation Xrotation
					JOINT rForeArm
					{
						OFFSET	-5.400000 0.000000 0.000000
						CHANNELS 3 Yrotation Zrotation Xrotation
						JOINT rHand
						{
							OFFSET	-4.392000 0.000000 0.000000
							CHANNELS 3 Zrotation Yrotation Xrotation
						}
					}
				}
			}
		}
	}
	JOINT lThigh
	{
		OFFSET	2.808000 -0.864002 0.720000
		CHANNELS 3 Xrotation Zrotation Yrotation
		JOINT lShin
		{
			OFFSET	-1.080000 -10.583999 0.000000
			CHANNELS 3 Xrotation Zrotation Yrotation
			JOINT lFoot
			{
				OFFSET	0.000000 -10.152000 -0.648000
				CHANNELS 3 Xrotation Yrotation Zrotation
				End Site
				{
					OFFSET 0.000000 -1.296000 2.448000
				}
			}
		}
	}
	JOINT rThigh
	{
		OFFSET	-2.808000 -0.864002 0.720000
		CHANNELS 3 Xrotation Zrotation Yrotation
		JOINT rShin
		{
			OFFSET	1.080000 -10.583999 0.000000
			CHANNELS 3 Xrotation Zrotation Yrotation
			JOINT rFoot
			{
				OFFSET	0.000000 -10.152000 -0.648000
				CHANNELS 3 Xrotation Yrotation Zrotation
				End Site
				{
					OFFSET 0.000000 -1.296000 2.448000
				}
			}
		}
	}
}
MOTION
Frames:     15
Frame Time: 0.033333
0.000000 23.151886 0.000000 0.000000 0.000000 0.000000 2.826641 0.826693 -0.290275 16.820440 0.668303 -0.438100 8.798421 -1.474714 2.391002 -8.031193 -3.787681 -1.079885 -25.736160 7.922860 1.806435 -69.997490 -35.791286 -15.354645 -19.504625 -0.861898 -7.659100 -12.006776 -11.782619 -43.155586 19.349192 1.784217 -1.636735 65.907570 44.408825 -10.355578 37.797791 1.161232 2.187478 5.085042 15.596492 -49.250366 0.000000 0.000000 0.000000 0.009766 0.000000 0.000000 -0.097656 0.000000 0.000000 0.000000 -0.019531 0.000000 0.009766 0.019531 -0.009766 0.166016 0.009766 0.000000 
0.000000 23.151886 0.000000 0.000000 0.000000 0.000000 2.510904 0.849905 -0.292165 16.489527 0.691397 -0.439417 8.183319 -1.510557 2.691289 -8.994052 -3.814681 -0.965882 -25.912895 7.830137 2.372000 -70.878502 -33.470913 -14.454857 -19.413282 -1.000129 -5.828016 -12.252020 -11.465734 -41.620079 18.615339 3.283807 -1.658646 66.131821 43.556587 -8.863936 39.505901 1.325134 4.302125 4.380642 15.826003 -48.631912 0.000000 0.000000 0.000000 0.009766 0.000000 0.000000 -0.097656 0.000000 0.000000 0.000000 -0.019531 0.000000 0.009766 0.019531 -0.009766 0.166016 0.009766 0.000000 
0.000000 23.151886 0.000000 0.000000 0.000000 0.000000 2.196094 0.872432 -0.294096 16.159462 0.713170 -0.440977 7.525970 -1.546095 2.874432 -10.015842 -3.842559 -0.852474 -26.099249 7.733314 2.959023 -71.784241 -31.068647 -13.530025 -19.355762 -1.142661 -3.972432 -12.490903 -11.146275 -40.078503 17.889378 4.777949 -1.676432 66.353287 42.705856 -7.384295 40.951195 1.489287 6.035060 3.678112 16.055511 -48.019478 0.000000 0.000000 0.000000 0.009766 0.000000 0.000000 -0.097656 0.000000 0.000000 0.000000 -0.019531 0.000000 0.009766 0.019531 -0.009766 0.166016 0.009766 0.000000 
0.000000 23.151886 0.000000 0.000000 0.000000 0.000000 1.886427 0.894166 -0.296028 15.834707 0.733721 -0.442682 6.848969 -1.580914 2.903547 -11.063551 -3.870645 -0.741097 -26.292662 7.632970 3.559517 -72.709465 -28.600508 -12.585471 -19.330175 -1.287493 -2.110754 -12.721551 -10.826620 -38.547611 17.179234 6.246966 -1.691125 66.569672 41.868336 -5.934081 42.063625 1.651264 7.301325 2.986920 16.281738 -47.419952 0.000000 0.000000 0.000000 0.009766 0.000000 0.000000 -0.097656 0.000000 0.000000 0.000000 -0.019531 0.000000 0.009766 0.019531 -0.009766 0.166016 0.009766 0.000000 
0.000000 23.151886 0.000000 0.000000 0.000000 0.000000 1.586463 0.914947 -0.297921 15.520075 0.753074 -0.444443 6.173694 -1.614554 2.741748 -12.105751 -3.898274 -0.633325 -26.490583 7.529685 4.165496 -73.649094 -26.081985 -11.626363 -19.334633 -1.432627 -0.261378 -12.942093 -10.509148 -37.044155 16.493877 7.669496 -1.703561 66.778336 41.056618 -4.532676 42.773109 1.808489 8.015931 2.317295 16.501175 -46.841072 0.000000 0.000000 0.000000 0.009766 0.000000 0.000000 -0.097656 0.000000 0.000000 0.000000 -0.019531 0.000000 0.009766 0.019531 -0.009766 0.166016 0.009766 0.000000 
0.000000 23.151886 0.000000 0.000000 0.000000 0.000000 1.301808 0.934513 -0.299728 15.221471 0.771125 -0.446176 5.521852 -1.646426 2.352149 -13.110226 -3.924734 -0.531118 -26.690462 7.424038 4.768968 -74.598175 -23.528154 -10.657749 -19.367245 -1.576059 1.557268 -13.150656 -10.196239 -35.584908 15.844932 9.019166 -1.714346 66.975815 40.286076 -3.204698 43.009579 1.957874 8.093898 1.681795 16.709579 -46.292786 0.000000 0.000000 0.000000 0.009766 0.000000 0.000000 -0.097656 0.000000 0.000000 0.000000 -0.019531 0.000000 0.009766 0.019531 -0.009766 0.166016 0.009766 0.000000 
0.000000 23.151886 0.000000 0.000000 0.000000 0.000000 1.041325 0.952350 -0.301388 14.948212 0.787504 -0.447789 4.920474 -1.675570 1.697865 -14.036257 -3.949053 -0.437619 -26.889740 7.316609 5.361947 -75.551849 -20.953655 -9.684556 -19.426121 -1.715789 3.326791 -13.345364 -9.890270 -34.186611 15.251730 10.254110 -1.723764 67.156288 39.580849 -1.990334 42.702961 2.094655 7.450247 1.100237 16.900360 -45.791515 0.000000 0.000000 0.000000 0.009766 0.000000 0.000000 -0.097656 0.000000 0.000000 0.000000 -0.019531 0.000000 0.009766 0.019531 -0.009766 0.166016 0.009766 0.000000 
0.000000 23.151886 0.000000 0.000000 0.000000 0.000000 0.830078 0.966799 -0.302735 14.726600 0.800756 -0.449104 4.431660 -1.699200 0.742011 -14.788800 -3.968800 -0.361800 -27.085861 7.207974 5.936446 -76.505325 -18.372864 -8.711650 -19.509371 -1.849817 5.028793 -13.524344 -9.593617 -32.866016 14.770800 11.255600 -1.731300 67.302597 39.008900 -1.005700 41.783199 2.205600 6.000000 0.628600 17.055099 -45.385101 0.000000 0.000000 0.000000 0.009766 0.000000 0.000000 -0.097656 0.000000 0.000000 0.000000 -0.019531 0.000000 0.009766 0.019531 -0.009766 0.166016 0.009766 0.000000 
0.000000 23.151886 0.000000 0.000000 0.000000 0.000000 0.921085 0.839262 1.241636 13.210731 0.649985 0.630549 4.061307 -1.425186 -0.749901 -13.872068 -3.836898 -1.021668 -27.276272 7.098716 6.484473 -77.453804 -15.800097 -7.743917 -19.615105 -1.976142 6.644850 -13.685724 -9.308664 -31.639900 15.063000 10.004982 -1.541123 66.055099 37.963921 -2.785222 40.116943 2.163884 3.490840 0.558756 15.160089 -39.564533 0.000000 0.000000 0.000000 0.009766 0.000000 0.000000 -0.097656 0.000000 0.000000 0.000000 -0.019531 0.000000 0.009766 0.019531 -0.009766 0.166016 0.009766 0.000000 
0.000000 23.151886 0.000000 0.000000 0.000000 0.000000 1.012092 0.711725 2.786006 11.694861 0.499214 1.710201 3.690953 -1.151173 -2.241814 -12.955336 -3.704996 -1.681535 -27.458414 6.989412 6.998041 -78.392395 -13.249767 -6.786318 -19.741432 -2.092763 8.156564 -13.827630 -9.037787 -30.525007 15.355200 8.754364 -1.350946 64.807602 36.918941 -4.564744 38.450687 2.122167 0.981680 0.488911 13.265078 -33.743965 0.000000 0.000000 0.000000 0.009766 0.000000 0.000000 -0.097656 0.000000 0.000000 0.000000 -0.019531 0.000000 0.009766 0.019531 -0.009766 0.166016 0.009766 0.000000 
0.000000 23.151886 0.000000 0.000000 0.000000 0.000000 1.103099 0.584189 4.330377 10.178992 0.348443 2.789854 3.320600 -0.877159 -3.733726 -12.038604 -3.573093 -2.341403 -27.629736 6.880641 7.469165 -79.315987 -10.736835 -5.844065 -19.886467 -2.197679 9.545530 -13.948191 -8.783367 -29.538095 15.647400 7.503747 -1.160769 63.560101 35.873962 -6.344267 36.784431 2.080451 -1.527480 0.419067 11.370067 -27.923399 0.000000 0.000000 0.000000 0.009766 0.000000 0.000000 -0.097656 0.000000 0.000000 0.000000 -0.019531 0.000000 0.009766 0.019531 -0.009766 0.166016 0.009766 0.000000 
0.000000 23.151886 0.000000 0.000000 0.000000 0.000000 1.194106 0.456652 5.874747 8.663124 0.197672 3.869507 2.950247 -0.603145 -5.225638 -11.121872 -3.441191 -3.001271 -27.787683 6.772982 7.889857 -80.218987 -8.277434 -4.922849 -20.048321 -2.288890 10.793349 -14.045531 -8.547780 -28.695913 15.939600 6.253129 -0.970592 62.312599 34.828987 -8.123789 35.118176 2.038735 -4.036640 0.349222 9.475056 -22.102833 0.000000 0.000000 0.000000 0.009766 0.000000 0.000000 -0.097656 0.000000 0.000000 0.000000 -0.019531 0.000000 0.009766 0.019531 -0.009766 0.166016 0.009766 0.000000 
0.000000 23.151886 0.000000 0.000000 0.000000 0.000000 1.285112 0.329115 7.419118 7.147255 0.046901 4.949160 2.579893 -0.329131 -6.717551 -10.205139 -3.309289 -3.661139 -27.929705 6.667017 8.252126 -81.094902 -5.890092 -4.029302 -20.225103 -2.364395 11.881602 -14.117781 -8.333408 -28.015228 16.231800 5.002512 -0.780415 61.065098 33.784008 -9.903311 33.451920 1.997018 -6.545800 0.279378 7.580045 -16.282267 0.000000 0.000000 0.000000 0.009766 0.000000 0.000000 -0.097656 0.000000 0.000000 0.000000 -0.019531 0.000000 0.009766 0.019531 -0.009766 0.166016 0.009766 0.000000 
0.000000 23.151886 0.000000 0.000000 0.000000 0.000000 1.376119 0.201578 8.963489 5.631387 -0.103869 6.028812 2.209540 -0.055117 -8.209463 -9.288406 -3.177387 -4.321007 -28.053240 6.563323 8.547985 -81.935471 -3.597972 -3.171836 -20.414923 -2.422194 12.791888 -14.163065 -8.142628 -27.512789 16.524000 3.751894 -0.590238 59.817596 32.739029 -11.682833 31.785664 1.955302 -9.054960 0.209533 5.685034 -10.461700 0.000000 0.000000 0.000000 0.009766 0.000000 0.000000 -0.097656 0.000000 0.000000 0.000000 -0.019531 0.000000 0.009766 0.019531 -0.009766 0.166016 0.009766 0.000000 
0.000000 23.151886 0.000000 0.000000 0.000000 0.000000 1.467126 0.074042 10.507859 4.115518 -0.254640 7.108465 1.839187 0.218896 -9.701375 -8.371675 -3.045485 -4.980875 -28.155737 6.462480 8.769447 -82.728661 -1.434390 -2.362706 -20.615889 -2.460284 13.505804 -14.179512 -7.977818 -27.205353 16.816200 2.501276 -0.400062 58.570099 31.694052 -13.462356 30.119410 1.913586 -11.564120 0.139689 3.790022 -4.641134 0.000000 0.000000 0.000000 0.009766 0.000000 0.000000 -0.097656 0.000000 0.000000 0.000000 -0.019531 0.000000 0.009766 0.019531 -0.009766 0.166016 0.009766 0.000000 
